<?xml version="1.0" encoding="UTF-8" standalone="no"?>
<!-- Created with Inkscape (http://www.inkscape.org/) -->

<svg
   xmlns:dc="http://purl.org/dc/elements/1.1/"
   xmlns:cc="http://creativecommons.org/ns#"
   xmlns:rdf="http://www.w3.org/1999/02/22-rdf-syntax-ns#"
   xmlns:svg="http://www.w3.org/2000/svg"
   xmlns="http://www.w3.org/2000/svg"
   xmlns:sodipodi="http://sodipodi.sourceforge.net/DTD/sodipodi-0.dtd"
   xmlns:inkscape="http://www.inkscape.org/namespaces/inkscape"
   width="18.035328mm"
   height="17.500244mm"
   viewBox="0 0 63.904705 62.008739"
   id="svg5628"
   version="1.1"
   inkscape:version="0.91 r13725"
   sodipodi:docname="logo_single.svg">
  <defs
     id="defs5630" />
  <sodipodi:namedview
     id="base"
     pagecolor="#ffffff"
     bordercolor="#666666"
     borderopacity="1.0"
     inkscape:pageopacity="0.0"
     inkscape:pageshadow="2"
     inkscape:zoom="0.78"
     inkscape:cx="-544.47622"
     inkscape:cy="19.575795"
     inkscape:document-units="px"
     inkscape:current-layer="layer1"
     showgrid="false"
     fit-margin-top="0"
     fit-margin-left="0"
     fit-margin-right="0"
     fit-margin-bottom="0"
     inkscape:window-width="1920"
     inkscape:window-height="1056"
     inkscape:window-x="0"
     inkscape:window-y="24"
     inkscape:window-maximized="1" />
  <metadata
     id="metadata5633">
    <rdf:RDF>
      <cc:Work
         rdf:about="">
        <dc:format>image/svg+xml</dc:format>
        <dc:type
           rdf:resource="http://purl.org/dc/dcmitype/StillImage" />
        <dc:title></dc:title>
      </cc:Work>
    </rdf:RDF>
  </metadata>
  <g
     inkscape:label="Layer 1"
     inkscape:groupmode="layer"
     id="layer1"
     transform="translate(-285.1905,-489.92926)">
    <g
       transform="matrix(0.78783076,0,0,0.78783076,-91.088885,-53.087458)"
       id="g6550-8-7">
      <g
         id="Working-4-0"
         transform="translate(500.60634,699.06106)">
        <path
           inkscape:connector-curvature="0"
           class="cls-2"
           d="m 33.125112,31.111384 -26.7793784,0 a 8.3492683,8.3492683 0 0 1 -8.4349894,-7.71493 c 0,-0.222876 0,-0.445751 0,-0.668627 a 7.8177954,7.8177954 0 0 1 5.6061824,-7.886373 c 0,-0.24002 0,-0.48004 0,-0.702916 a 11.778126,11.778126 0 0 1 6.6862724,-10.2865732 11.212364,11.212364 0 0 1 12.669629,2.503067 12.721062,12.721062 0 0 1 2.588788,3.8403202 4.9889879,4.9889879 0 0 1 4.543236,-0.9600802 6.0347894,6.0347894 0 0 1 4.028908,5.4690282 8.1092483,8.1092483 0 0 1 6.737705,8.092104 c 0,7.59492 -7.560631,8.297835 -7.646353,8.31498 z M 4.5455836,16.247286 a 6.2576652,6.2576652 0 0 0 -4.92041065,6.480541 c 0,0.188587 0,0.377174 0,0.565761 a 6.7034167,6.7034167 0 0 0 6.85771565,6.137655 l 26.7279454,0 a 6.7034167,6.7034167 0 0 0 0,-13.3554"
           id="path13-0-4" />
      </g>
    </g>
    <path
       inkscape:connector-curvature="0"
       style="color:#000000;font-style:normal;font-variant:normal;font-weight:normal;font-stretch:normal;font-size:medium;line-height:normal;font-family:Sans;-inkscape-font-specification:Sans;text-indent:0;text-align:start;text-decoration:none;text-decoration-line:none;letter-spacing:normal;word-spacing:normal;text-transform:none;direction:ltr;writing-mode:lr-tb;baseline-shift:baseline;text-anchor:start;display:inline;overflow:visible;visibility:visible;fill:#333333;fill-opacity:1;fill-rule:nonzero;stroke:none;stroke-width:0;stroke-miterlimit:4;stroke-dasharray:none;marker:none;enable-background:accumulate"
       d="m 316.92136,489.93443 a 4.2484973,4.2137292 0 0 0 -1.62573,0.41451 l -22.21914,10.61297 a 4.2484973,4.2137292 0 0 0 -2.29863,2.85848 l -5.48009,23.84487 a 4.2484973,4.2137292 0 0 0 0.576,3.23258 4.2484973,4.2137292 0 0 0 0.24223,0.3337 l 15.3771,19.12106 a 4.2484973,4.2137292 0 0 0 3.32143,1.5854 l 24.66043,-0.01 a 4.2484973,4.2137292 0 0 0 3.32143,-1.5827 l 15.37171,-19.12376 a 4.2484973,4.2137292 0 0 0 0.82094,-3.5636 l -5.48815,-23.84755 a 4.2484973,4.2137292 0 0 0 -2.29862,-2.85578 l -22.21915,-10.60797 a 4.2484973,4.2137292 0 0 0 -2.06176,-0.41182 z m 0.0108,1.63649 a 4.024445,3.9915108 0 0 1 1.95141,0.39029 l 21.0483,10.05042 a 4.024445,3.9915108 0 0 1 2.17751,2.70775 l 5.20017,22.58789 a 4.024445,3.9915108 0 0 1 -0.77787,3.37787 l -14.56155,18.11446 a 4.024445,3.9915108 0 0 1 -3.14648,1.4992 l -23.36038,0 a 4.024445,3.9915108 0 0 1 -3.14648,-1.5019 l -14.56693,-18.11166 a 4.024445,3.9915108 0 0 1 -0.22878,-0.3176 4.024445,3.9915108 0 0 1 -0.54639,-3.06035 l 5.19209,-22.58789 a 4.024445,3.9915108 0 0 1 2.1775,-2.70775 l 21.04561,-10.05581 a 4.024445,3.9915108 0 0 1 1.54229,-0.39028 z"
       id="path3054-2-9-3" />
    <g
       transform="translate(285.19051,489.92926)"
       style="font-style:normal;font-weight:normal;font-size:32.34728241px;line-height:125%;font-family:sans-serif;letter-spacing:0px;word-spacing:0px;fill:#000000;fill-opacity:1;stroke:none;stroke-width:1px;stroke-linecap:butt;stroke-linejoin:miter;stroke-opacity:1"
       id="flowRoot7729-0">
      <path
         d="m 15.925826,38.180234 0,10.314843 2.167805,0 q 2.745294,0 4.01577,-1.243823 1.27936,-1.243822 1.27936,-3.926925 0,-2.665334 -1.27936,-3.900272 -1.270476,-1.243823 -4.01577,-1.243823 l -2.167805,0 z m -1.794659,-1.474818 3.687046,0 q 3.85585,0 5.659392,1.608085 1.803543,1.5992 1.803543,5.010828 0,3.429396 -1.812427,5.037481 -1.812427,1.608085 -5.650508,1.608085 l -3.687046,0 0,-13.264479 z"
         style="font-style:normal;font-variant:normal;font-weight:normal;font-stretch:normal;font-size:18.19534683px;line-height:100%;font-family:Sans;-inkscape-font-specification:'Sans, Normal';text-align:justify;writing-mode:lr-tb;text-anchor:start"
         id="path6258" />
      <path
         d="m 29.927714,38.180234 0,10.314843 2.167805,0 q 2.745294,0 4.01577,-1.243823 1.279361,-1.243822 1.279361,-3.926925 0,-2.665334 -1.279361,-3.900272 -1.270476,-1.243823 -4.01577,-1.243823 l -2.167805,0 z m -1.794658,-1.474818 3.687046,0 q 3.855849,0 5.659392,1.608085 1.803543,1.5992 1.803543,5.010828 0,3.429396 -1.812427,5.037481 -1.812427,1.608085 -5.650508,1.608085 l -3.687046,0 0,-13.264479 z"
         style="font-style:normal;font-variant:normal;font-weight:normal;font-stretch:normal;font-size:18.19534683px;line-height:100%;font-family:Sans;-inkscape-font-specification:'Sans, Normal';text-align:justify;writing-mode:lr-tb;text-anchor:start"
         id="path6260" />
      <path
         d="m 52.067756,37.727127 0,1.892387 q -0.906214,-0.844022 -1.93681,-1.261591 -1.021711,-0.417569 -2.176689,-0.417569 -2.274418,0 -3.482703,1.394858 -1.208285,1.385974 -1.208285,4.01577 0,2.620912 1.208285,4.01577 1.208285,1.385974 3.482703,1.385974 1.154978,0 2.176689,-0.417569 1.030596,-0.417569 1.93681,-1.261592 l 0,1.874618 q -0.941751,0.639681 -1.999001,0.959521 -1.048364,0.31984 -2.221111,0.31984 -3.011828,0 -4.744295,-1.839081 -1.732467,-1.847965 -1.732467,-5.037481 0,-3.198401 1.732467,-5.037481 1.732467,-1.847965 4.744295,-1.847965 1.190516,0 2.23888,0.31984 1.057249,0.310956 1.981232,0.941751 z"
         style="font-style:normal;font-variant:normal;font-weight:normal;font-stretch:normal;font-size:18.19534683px;line-height:100%;font-family:Sans;-inkscape-font-specification:'Sans, Normal';text-align:justify;writing-mode:lr-tb;text-anchor:start"
         id="path6262" />
    </g>
  </g>
</svg>
